<?xml version="1.0" encoding="UTF-8"?>
<svg version="1.1" xmlns="http://www.w3.org/2000/svg" width="512" height="512">
<path d="M0 0 C1.58509557 -0.00659071 3.17018512 -0.01481177 4.75526428 -0.02458191 C8.0698545 -0.03790373 11.38347517 -0.02914996 14.69799805 -0.00512695 C18.92980685 0.02344231 23.15882822 -0.00659584 27.39038754 -0.05376148 C30.66181926 -0.08306144 33.93259318 -0.0791915 37.20410347 -0.06574059 C38.76331316 -0.06359813 40.32257666 -0.07199478 41.88166618 -0.09147072 C55.52822689 -0.23311013 55.52822689 -0.23311013 60.75683594 4.05126953 C63.3987016 6.92286462 64.94479918 9.30937854 65.5859375 13.21875 C65.88878662 14.90556885 65.88878662 14.90556885 66.19775391 16.62646484 C66.34763763 17.60120758 66.34763763 17.60120758 66.50054932 18.59564209 C66.90415911 21.19607578 67.35814413 23.78565348 67.81396484 26.37744141 C68.93103763 32.79284314 69.98490085 39.21791228 71.03515625 45.64453125 C71.40652169 47.89784901 71.77826338 50.1511048 72.15039062 52.40429688 C73.05381951 57.87950116 73.95259596 63.35545303 74.84765625 68.83203125 C76.61725708 69.39579468 76.61725708 69.39579468 78.42260742 69.97094727 C87.87040493 73.02285595 96.7270089 76.39676182 105.53320312 81.01367188 C109.77682623 83.17734278 109.77682623 83.17734278 114.41015625 83.9140625 C118.12810247 82.26362804 121.26521557 79.9837827 124.53515625 77.58203125 C125.27266113 77.05134033 126.01016602 76.52064941 126.77001953 75.97387695 C129.13577769 74.26876536 131.49245028 72.55168256 133.84765625 70.83203125 C139.17913005 66.95110455 144.51662356 63.07961472 149.88232422 59.24609375 C151.61377169 58.00031192 153.32786261 56.73048233 155.0390625 55.45703125 C160.4940696 51.60826379 164.52688946 50.06324159 171.2421875 50.1953125 C179.02006906 52.09605417 184.56373965 59.25875322 189.98828125 64.70703125 C190.96111391 65.67851468 191.93424312 66.64970122 192.90765381 67.62060547 C194.93811998 69.6481353 196.96495552 71.67920726 198.98925781 73.71289062 C201.58050577 76.31556276 204.18067145 78.90911113 206.78360367 81.50009155 C208.79124426 83.5004992 210.79408983 85.50565312 212.7955246 87.51226807 C214.21647449 88.93519416 215.64144158 90.35410497 217.06646729 91.77294922 C217.92786316 92.64064941 218.78925903 93.50834961 219.67675781 94.40234375 C220.43587463 95.16305176 221.19499146 95.92375977 221.97711182 96.70751953 C225.89647905 101.15902652 226.48521502 105.04229815 226.33203125 110.86328125 C225.41814571 116.46451521 222.17680507 120.35848752 218.84765625 124.83203125 C217.86612126 126.19621576 216.88713221 127.56223428 215.91015625 128.9296875 C212.00245 134.38196764 208.05671603 139.80653953 204.10107422 145.22412109 C202.42501834 147.52508267 200.76033619 149.8338933 199.09765625 152.14453125 C198.58436768 152.84336426 198.0710791 153.54219727 197.54223633 154.26220703 C193.91758305 159.08991077 193.91758305 159.08991077 192.84765625 164.83203125 C193.95392562 167.85791058 195.41578936 170.66920822 196.91015625 173.51953125 C201.66468209 182.60507054 204.74399842 192.08993874 207.84765625 201.83203125 C208.50640747 201.9381221 209.16515869 202.04421295 209.84387207 202.15351868 C216.72405241 203.26323116 223.60227437 204.38452779 230.47949219 205.51245117 C233.04346467 205.9314189 235.60791567 206.34746937 238.17285156 206.76049805 C241.86784644 207.35602573 245.56097117 207.96215853 249.25390625 208.5703125 C250.96374695 208.84238274 250.96374695 208.84238274 252.70812988 209.11994934 C269.79865844 211.96637964 269.79865844 211.96637964 274.73764038 218.38357544 C277.33830307 224.12007692 276.72314229 230.79458672 276.6796875 236.984375 C276.68627821 238.56947057 276.69449927 240.15456012 276.70426941 241.73963928 C276.71759123 245.0542295 276.70883746 248.36785017 276.68481445 251.68237305 C276.65624519 255.91418185 276.68628334 260.14320322 276.73344898 264.37476254 C276.76274894 267.64619426 276.758879 270.91696818 276.74542809 274.18847847 C276.74328563 275.74768816 276.75168228 277.30695166 276.77115822 278.86604118 C276.91279763 292.51260189 276.91279763 292.51260189 272.62841797 297.74121094 C269.75682288 300.3830766 267.37030896 301.92917418 263.4609375 302.5703125 C261.77411865 302.87316162 261.77411865 302.87316162 260.05322266 303.18212891 C259.07847992 303.33201263 259.07847992 303.33201263 258.08404541 303.48492432 C255.48361172 303.88853411 252.89403402 304.34251913 250.30224609 304.79833984 C243.88684436 305.91541263 237.46177522 306.96927585 231.03515625 308.01953125 C228.78183849 308.39089669 226.5285827 308.76263838 224.27539062 309.13476562 C218.80018634 310.03819451 213.32423447 310.93697096 207.84765625 311.83203125 C207.47181396 313.01176514 207.09597168 314.19149902 206.70874023 315.40698242 C203.65683155 324.85477993 200.28292568 333.7113839 195.66601562 342.51757812 C193.51367051 346.75085908 193.51367051 346.75085908 192.734375 351.3671875 C194.50086674 355.27826219 197.01894039 358.54331674 199.59765625 361.95703125 C200.78333963 363.56095737 201.96686543 365.16648028 203.1484375 366.7734375 C203.75896973 367.60246582 204.36950195 368.43149414 204.99853516 369.28564453 C208.00977646 373.43236315 210.90151202 377.65849331 213.78515625 381.89453125 C214.30368164 382.65459473 214.82220703 383.4146582 215.35644531 384.19775391 C216.35737614 385.66889693 217.35390935 387.14304301 218.34570312 388.62036133 C219.38951421 390.15740369 220.45504439 391.67982924 221.53710938 393.19018555 C226.66846899 400.48111884 226.66846899 400.48111884 226.47265625 405.51953125 C226.46492188 406.38964844 226.4571875 407.25976562 226.44921875 408.15625 C224.69189275 415.97292734 217.41044408 421.55855915 211.97265625 426.97265625 C211.00117282 427.94548891 210.02998628 428.91861812 209.05908203 429.89202881 C207.0315522 431.92249498 205.00048024 433.94933052 202.96679688 435.97363281 C200.36412474 438.56488077 197.77057637 441.16504645 195.17959595 443.76797867 C193.1791883 445.77561926 191.17403438 447.77846483 189.16741943 449.7798996 C187.74449334 451.20084949 186.32558253 452.62581658 184.90673828 454.05084229 C183.60518799 455.3429361 183.60518799 455.3429361 182.27734375 456.66113281 C181.51663574 457.42024963 180.75592773 458.17936646 179.97216797 458.96148682 C175.52066098 462.88085405 171.63738935 463.46959002 165.81640625 463.31640625 C160.21517229 462.40252071 156.32119998 459.16118007 151.84765625 455.83203125 C150.48347174 454.85049626 149.11745322 453.87150721 147.75 452.89453125 C142.29771986 448.986825 136.87314797 445.04109103 131.45556641 441.08544922 C129.15460483 439.40939334 126.8457942 437.74471119 124.53515625 436.08203125 C123.83632324 435.56874268 123.13749023 435.0554541 122.41748047 434.52661133 C117.58977673 430.90195805 117.58977673 430.90195805 111.84765625 429.83203125 C108.82177692 430.93830062 106.01047928 432.40016436 103.16015625 433.89453125 C94.07461696 438.64905709 84.58974876 441.72837342 74.84765625 444.83203125 C74.7415654 445.49078247 74.63547455 446.14953369 74.52616882 446.82824707 C73.41645634 453.70842741 72.29515971 460.58664937 71.16723633 467.46386719 C70.7482686 470.02783967 70.33221813 472.59229067 69.91918945 475.15722656 C69.32366177 478.85222144 68.71752897 482.54534617 68.109375 486.23828125 C67.83730476 487.94812195 67.83730476 487.94812195 67.55973816 489.69250488 C64.71330786 506.78303344 64.71330786 506.78303344 58.29611206 511.72201538 C52.55961058 514.32267807 45.88510078 513.70751729 39.6953125 513.6640625 C38.11021693 513.67065321 36.52512738 513.67887427 34.94004822 513.68864441 C31.625458 513.70196623 28.31183733 513.69321246 24.99731445 513.66918945 C20.76550565 513.64062019 16.53648428 513.67065834 12.30492496 513.71782398 C9.03349324 513.74712394 5.76271932 513.743254 2.49120903 513.72980309 C0.93199934 513.72766063 -0.62726416 513.73605728 -2.18635368 513.75553322 C-15.83291439 513.89717263 -15.83291439 513.89717263 -21.06152344 509.61279297 C-23.7033891 506.74119788 -25.24948668 504.35468396 -25.890625 500.4453125 C-26.09252441 499.3207666 -26.29442383 498.1962207 -26.50244141 497.03759766 C-26.65232513 496.06285492 -26.65232513 496.06285492 -26.80523682 495.06842041 C-27.20884661 492.46798672 -27.66283163 489.87840902 -28.11865234 487.28662109 C-29.23572513 480.87121936 -30.28958835 474.44615022 -31.33984375 468.01953125 C-31.71120919 465.76621349 -32.08295088 463.5129577 -32.45507812 461.25976562 C-33.35850701 455.78456134 -34.25728346 450.30860947 -35.15234375 444.83203125 C-36.92194458 444.26826782 -36.92194458 444.26826782 -38.72729492 443.69311523 C-48.17509243 440.64120655 -57.0316964 437.26730068 -65.83789062 432.65039062 C-70.07117158 430.49804551 -70.07117158 430.49804551 -74.6875 429.71875 C-78.59857469 431.48524174 -81.86362924 434.00331539 -85.27734375 436.58203125 C-86.88126987 437.76771463 -88.48679278 438.95124043 -90.09375 440.1328125 C-90.92277832 440.74334473 -91.75180664 441.35387695 -92.60595703 441.98291016 C-96.75267565 444.99415146 -100.97880581 447.88588702 -105.21484375 450.76953125 C-105.97490723 451.28805664 -106.7349707 451.80658203 -107.51806641 452.34082031 C-108.98920943 453.34175114 -110.46335551 454.33828435 -111.94067383 455.33007812 C-113.47771619 456.37388921 -115.00014174 457.43941939 -116.51049805 458.52148438 C-123.80143134 463.65284399 -123.80143134 463.65284399 -128.83984375 463.45703125 C-129.70996094 463.44929688 -130.58007812 463.4415625 -131.4765625 463.43359375 C-139.29323984 461.67626775 -144.87887165 454.39481908 -150.29296875 448.95703125 C-151.26580141 447.98554782 -152.23893062 447.01436128 -153.21234131 446.04345703 C-155.24280748 444.0159272 -157.26964302 441.98485524 -159.29394531 439.95117188 C-161.88519327 437.34849974 -164.48535895 434.75495137 -167.08829117 432.16397095 C-169.09593176 430.1635633 -171.09877733 428.15840938 -173.1002121 426.15179443 C-174.52116199 424.72886834 -175.94612908 423.30995753 -177.37115479 421.89111328 C-178.23255066 421.02341309 -179.09394653 420.15571289 -179.98144531 419.26171875 C-180.74056213 418.50101074 -181.49967896 417.74030273 -182.28179932 416.95654297 C-186.20116655 412.50503598 -186.78990252 408.62176435 -186.63671875 402.80078125 C-185.72283321 397.19954729 -182.48149257 393.30557498 -179.15234375 388.83203125 C-178.17080876 387.46784674 -177.19181971 386.10182822 -176.21484375 384.734375 C-172.3071375 379.28209486 -168.36140353 373.85752297 -164.40576172 368.43994141 C-162.72970584 366.13897983 -161.06502369 363.8301692 -159.40234375 361.51953125 C-158.88905518 360.82069824 -158.3757666 360.12186523 -157.84692383 359.40185547 C-154.22227055 354.57415173 -154.22227055 354.57415173 -153.15234375 348.83203125 C-154.25861312 345.80615192 -155.72047686 342.99485428 -157.21484375 340.14453125 C-161.96936959 331.05899196 -165.04868592 321.57412376 -168.15234375 311.83203125 C-168.81109497 311.7259404 -169.46984619 311.61984955 -170.14855957 311.51054382 C-177.02873991 310.40083134 -183.90696187 309.27953471 -190.78417969 308.15161133 C-193.34815217 307.7326436 -195.91260317 307.31659313 -198.47753906 306.90356445 C-202.17253394 306.30803677 -205.86565867 305.70190397 -209.55859375 305.09375 C-210.69848755 304.91236984 -211.83838135 304.73098969 -213.01281738 304.54411316 C-230.10334594 301.69768286 -230.10334594 301.69768286 -235.04232788 295.28048706 C-237.64299057 289.54398558 -237.02782979 282.86947578 -236.984375 276.6796875 C-236.99096571 275.09459193 -236.99918677 273.50950238 -237.00895691 271.92442322 C-237.02227873 268.609833 -237.01352496 265.29621233 -236.98950195 261.98168945 C-236.96093269 257.74988065 -236.99097084 253.52085928 -237.03813648 249.28929996 C-237.06743644 246.01786824 -237.0635665 242.74709432 -237.05011559 239.47558403 C-237.04797313 237.91637434 -237.05636978 236.35711084 -237.07584572 234.79802132 C-237.21748513 221.15146061 -237.21748513 221.15146061 -232.93310547 215.92285156 C-230.06151038 213.2809859 -227.67499646 211.73488832 -223.765625 211.09375 C-222.07880615 210.79090088 -222.07880615 210.79090088 -220.35791016 210.48193359 C-219.38316742 210.33204987 -219.38316742 210.33204987 -218.38873291 210.17913818 C-215.78829922 209.77552839 -213.19872152 209.32154337 -210.60693359 208.86572266 C-204.19153186 207.74864987 -197.76646272 206.69478665 -191.33984375 205.64453125 C-189.08652599 205.27316581 -186.8332702 204.90142412 -184.58007812 204.52929688 C-179.10487384 203.62586799 -173.62892197 202.72709154 -168.15234375 201.83203125 C-167.77650146 200.65229736 -167.40065918 199.47256348 -167.01342773 198.25708008 C-163.96151905 188.80928257 -160.58761318 179.9526786 -155.97070312 171.14648438 C-153.80703222 166.90286127 -153.80703222 166.90286127 -153.0703125 162.26953125 C-154.72074696 158.55158503 -157.0005923 155.41447193 -159.40234375 152.14453125 C-159.93303467 151.40702637 -160.46372559 150.66952148 -161.01049805 149.90966797 C-162.71560964 147.54390981 -164.43269244 145.18723722 -166.15234375 142.83203125 C-170.03327045 137.50055745 -173.90476028 132.16306394 -177.73828125 126.79736328 C-178.98406308 125.06591581 -180.25389267 123.35182489 -181.52734375 121.640625 C-185.37611121 116.1856179 -186.92113341 112.15279804 -186.7890625 105.4375 C-184.88832083 97.65961844 -177.72562178 92.11594785 -172.27734375 86.69140625 C-171.30586032 85.71857359 -170.33467378 84.74544438 -169.36376953 83.77203369 C-167.3362397 81.74156752 -165.30516774 79.71473198 -163.27148438 77.69042969 C-160.66881224 75.09918173 -158.07526387 72.49901605 -155.48428345 69.89608383 C-153.4838758 67.88844324 -151.47872188 65.88559767 -149.47210693 63.8841629 C-148.04918084 62.46321301 -146.63027003 61.03824592 -145.21142578 59.61322021 C-144.34372559 58.75182434 -143.47602539 57.89042847 -142.58203125 57.00292969 C-141.82132324 56.24381287 -141.06061523 55.48469604 -140.27685547 54.70257568 C-135.82534848 50.78320845 -131.94207685 50.19447248 -126.12109375 50.34765625 C-120.51985979 51.26154179 -116.62588748 54.50288243 -112.15234375 57.83203125 C-110.78815924 58.81356624 -109.42214072 59.79255529 -108.0546875 60.76953125 C-102.60240736 64.6772375 -97.17783547 68.62297147 -91.76025391 72.57861328 C-89.45929233 74.25466916 -87.1504817 75.91935131 -84.83984375 77.58203125 C-84.14101074 78.09531982 -83.44217773 78.6086084 -82.72216797 79.13745117 C-77.89446423 82.76210445 -77.89446423 82.76210445 -72.15234375 83.83203125 C-69.12646442 82.72576188 -66.31516678 81.26389814 -63.46484375 79.76953125 C-54.37930446 75.01500541 -44.89443626 71.93568908 -35.15234375 68.83203125 C-35.0462529 68.17328003 -34.94016205 67.51452881 -34.83085632 66.83581543 C-33.72114384 59.95563509 -32.59984721 53.07741313 -31.47192383 46.20019531 C-31.0529561 43.63622283 -30.63690563 41.07177183 -30.22387695 38.50683594 C-29.62834927 34.81184106 -29.02221647 31.11871633 -28.4140625 27.42578125 C-28.23268234 26.28588745 -28.05130219 25.14599365 -27.86442566 23.97155762 C-25.01799536 6.88102906 -25.01799536 6.88102906 -18.60079956 1.94204712 C-12.86429808 -0.65861557 -6.18978828 -0.04345479 0 0 Z M-16.13671875 230.1015625 C-24.15971816 240.96992798 -25.22573665 252.7524317 -24.15234375 265.83203125 C-21.65014786 277.95695761 -13.96003117 287.59202165 -4.15234375 294.83203125 C7.15378941 301.12153579 19.45376876 302.77062832 32.16015625 300.1484375 C43.6531906 296.21403227 53.54006275 288.57544337 59.48828125 277.8828125 C64.62371918 266.82981534 66.24557026 253.52111409 62.22265625 241.76953125 C56.7010185 229.21163983 48.02255562 220.05123098 35.29296875 214.70703125 C15.96346055 207.79040212 -3.19168343 215.14235211 -16.13671875 230.1015625 Z " fill="#FEB531" transform="translate(236.15234375,-0.83203125)"/>
</svg>
